<?xml version="1.0" encoding="UTF-8"?>
<svg width="127px" height="32px" viewBox="0 0 127 32" version="1.1" xmlns="http://www.w3.org/2000/svg" xmlns:xlink="http://www.w3.org/1999/xlink">
    <!-- Generator: Sketch 49.2 (51160) - http://www.bohemiancoding.com/sketch -->
    <title>formats</title>
    <desc>Created with Sketch.</desc>
    <defs></defs>
    <g id="Dev-Ready" stroke="none" stroke-width="1" fill="none" fill-rule="evenodd">
        <g id="About-1400" transform="translate(-501.000000, -1118.000000)">
            <g id="How-to-use" transform="translate(80.000000, 763.000000)">
                <g id="formats" transform="translate(421.000000, 355.000000)">
                    <g id="Group-2">
                        <rect id="Rectangle-5" fill="#9B9B9B" x="0" y="0" width="61" height="32" rx="2"></rect>
                        <path d="M13.6225586,19.5317383 L14.9335938,19.5317383 C14.9482423,19.9760764 15.1105942,20.337401 15.4206543,20.6157227 C15.7307144,20.8940444 16.1347631,21.0332031 16.6328125,21.0332031 C17.1992216,21.0332031 17.6350082,20.8647478 17.9401855,20.527832 C18.2453629,20.1909163 18.3979492,19.6977572 18.3979492,19.0483398 L18.3979492,11.4311523 L19.7163086,11.4311523 L19.7163086,19.0556641 C19.7163086,20.0615285 19.4428738,20.845212 18.8959961,21.4067383 C18.3491184,21.9682645 17.5971728,22.2490234 16.6401367,22.2490234 C15.7563432,22.2490234 15.0324735,21.9987818 14.4685059,21.498291 C13.9045382,20.9978002 13.6225586,20.3422892 13.6225586,19.5317383 Z M22.1772461,11.4311523 L26.1689453,11.4311523 C27.1699269,11.4311523 27.9841277,11.7497527 28.6115723,12.3869629 C29.2390168,13.0241731 29.5527344,13.8456981 29.5527344,14.8515625 C29.5527344,15.8378956 29.234134,16.6472136 28.5969238,17.279541 C27.9597136,17.9118684 27.1455128,18.2280273 26.1542969,18.2280273 L23.4956055,18.2280273 L23.4956055,22 L22.1772461,22 L22.1772461,11.4311523 Z M23.4956055,12.6030273 L23.4956055,17.0561523 L25.824707,17.0561523 C26.5766639,17.0561523 27.1601542,16.8632832 27.5751953,16.4775391 C27.9902365,16.0917949 28.1977539,15.5498082 28.1977539,14.8515625 C28.1977539,14.1240198 27.9938985,13.5673847 27.5861816,13.1816406 C27.1784648,12.7958965 26.5913124,12.6030273 25.824707,12.6030273 L23.4956055,12.6030273 Z M38.0195312,20.8134766 L38.0195312,22 L31.4716797,22 L31.4716797,11.4311523 L38.0195312,11.4311523 L38.0195312,12.6176758 L32.7900391,12.6176758 L32.7900391,16.0087891 L37.7485352,16.0087891 L37.7485352,17.1806641 L32.7900391,17.1806641 L32.7900391,20.8134766 L38.0195312,20.8134766 Z M49.0424805,17.9130859 C49.0424805,19.2168034 48.6323283,20.2653769 47.8120117,21.0588379 C46.9916951,21.8522989 45.9052802,22.2490234 44.5527344,22.2490234 C43.0927661,22.2490234 41.9294477,21.7485402 41.0627441,20.7475586 C40.1960406,19.746577 39.7626953,18.4013756 39.7626953,16.7119141 C39.7626953,15.0419838 40.1997027,13.7028859 41.0737305,12.6945801 C41.9477583,11.6862743 43.1074146,11.1821289 44.5527344,11.1821289 C45.7246152,11.1821289 46.7072714,11.4860809 47.5007324,12.0939941 C48.2941934,12.7019073 48.7861319,13.5307565 48.9765625,14.5805664 L47.6362305,14.5805664 C47.41162,13.8676722 47.0380885,13.3256854 46.515625,12.9545898 C45.9931615,12.5834942 45.3388711,12.3979492 44.5527344,12.3979492 C43.5078073,12.3979492 42.6740754,12.7885703 42.0515137,13.5698242 C41.428952,14.3510781 41.1176758,15.3984309 41.1176758,16.7119141 C41.1176758,18.0449285 41.4265106,19.0983848 42.0441895,19.8723145 C42.6618683,20.6462441 43.500483,21.0332031 44.5600586,21.0332031 C45.507329,21.0332031 46.2727022,20.757327 46.8562012,20.2055664 C47.4397002,19.6538058 47.7314453,18.9311568 47.7314453,18.0375977 L47.7314453,17.78125 L44.7578125,17.78125 L44.7578125,16.6240234 L49.0424805,16.6240234 L49.0424805,17.9130859 Z" id="JPEG" fill="#2A2C2D"></path>
                    </g>
                    <g id="Group-2-Copy" transform="translate(71.000000, 0.000000)">
                        <rect id="Rectangle-5" fill="#9B9B9B" x="0" y="0" width="56" height="32" rx="2"></rect>
                        <path d="M13.340332,11.4311523 L17.3320312,11.4311523 C18.3330128,11.4311523 19.1472137,11.7497527 19.7746582,12.3869629 C20.4021027,13.0241731 20.7158203,13.8456981 20.7158203,14.8515625 C20.7158203,15.8378956 20.39722,16.6472136 19.7600098,17.279541 C19.1227995,17.9118684 18.3085987,18.2280273 17.3173828,18.2280273 L14.6586914,18.2280273 L14.6586914,22 L13.340332,22 L13.340332,11.4311523 Z M14.6586914,12.6030273 L14.6586914,17.0561523 L16.987793,17.0561523 C17.7397499,17.0561523 18.3232401,16.8632832 18.7382812,16.4775391 C19.1533224,16.0917949 19.3608398,15.5498082 19.3608398,14.8515625 C19.3608398,14.1240198 19.1569845,13.5673847 18.7492676,13.1816406 C18.3415507,12.7958965 17.7543984,12.6030273 16.987793,12.6030273 L14.6586914,12.6030273 Z M23.9384766,22 L22.6347656,22 L22.6347656,11.4311523 L23.9165039,11.4311523 L29.6513672,19.65625 L29.7685547,19.65625 L29.7685547,11.4311523 L31.0722656,11.4311523 L31.0722656,22 L29.7905273,22 L24.0556641,13.8041992 L23.9384766,13.8041992 L23.9384766,22 Z M42.402832,17.9130859 C42.402832,19.2168034 41.9926799,20.2653769 41.1723633,21.0588379 C40.3520467,21.8522989 39.2656318,22.2490234 37.9130859,22.2490234 C36.4531177,22.2490234 35.2897993,21.7485402 34.4230957,20.7475586 C33.5563922,19.746577 33.1230469,18.4013756 33.1230469,16.7119141 C33.1230469,15.0419838 33.5600542,13.7028859 34.434082,12.6945801 C35.3081098,11.6862743 36.4677662,11.1821289 37.9130859,11.1821289 C39.0849668,11.1821289 40.067623,11.4860809 40.861084,12.0939941 C41.654545,12.7019073 42.1464834,13.5307565 42.3369141,14.5805664 L40.996582,14.5805664 C40.7719715,13.8676722 40.3984401,13.3256854 39.8759766,12.9545898 C39.353513,12.5834942 38.6992227,12.3979492 37.9130859,12.3979492 C36.8681588,12.3979492 36.0344269,12.7885703 35.4118652,13.5698242 C34.7893035,14.3510781 34.4780273,15.3984309 34.4780273,16.7119141 C34.4780273,18.0449285 34.7868621,19.0983848 35.404541,19.8723145 C36.0222199,20.6462441 36.8608345,21.0332031 37.9204102,21.0332031 C38.8676805,21.0332031 39.6330537,20.757327 40.2165527,20.2055664 C40.8000517,19.6538058 41.0917969,18.9311568 41.0917969,18.0375977 L41.0917969,17.78125 L38.1181641,17.78125 L38.1181641,16.6240234 L42.402832,16.6240234 L42.402832,17.9130859 Z" id="PNG" fill="#2A2C2D"></path>
                    </g>
                </g>
            </g>
        </g>
    </g>
</svg>