<?xml version="1.0" standalone="no"?>
<!DOCTYPE svg PUBLIC "-//W3C//DTD SVG 20010904//EN"
 "http://www.w3.org/TR/2001/REC-SVG-20010904/DTD/svg10.dtd">
<svg version="1.0" xmlns="http://www.w3.org/2000/svg"
 width="325.000000pt" height="325.000000pt" viewBox="0 0 325.000000 325.000000"
 preserveAspectRatio="xMidYMid meet">
<metadata>
Created by potrace 1.11, written by Peter Selinger 2001-2013
</metadata>
<g transform="translate(0.000000,325.000000) scale(0.100000,-0.100000)"
fill="#000000" stroke="none">
<path d="M1468 3245 c-2 -1 -27 -6 -57 -9 -422 -50 -846 -302 -1098 -651 -137
-191 -233 -404 -279 -619 -26 -122 -29 -158 -28 -336 1 -169 6 -230 24 -315 5
-22 12 -53 15 -70 30 -139 123 -357 210 -491 271 -416 671 -671 1160 -740 70
-10 331 -12 380 -3 22 4 65 10 95 13 178 21 432 119 620 241 194 125 413 354
516 540 96 175 145 302 184 475 25 116 34 195 34 325 1 364 -90 657 -297 960
-59 85 -78 107 -192 220 -233 231 -519 380 -848 442 -69 12 -428 28 -439 18z
m54 -1092 c7 -6 141 -106 298 -223 157 -117 295 -221 308 -233 22 -20 30 -70
14 -93 -4 -6 -149 -118 -322 -247 -218 -164 -323 -237 -341 -237 -14 0 -35 10
-48 24 l-22 23 0 479 -1 479 26 22 c26 22 65 25 88 6z"/>
</g>
</svg>
