<?xml version="1.0" encoding="UTF-8"?>
<svg width="21px" height="18px" viewBox="0 0 21 18" version="1.1" xmlns="http://www.w3.org/2000/svg" xmlns:xlink="http://www.w3.org/1999/xlink">
    <g id="Dev-Ready" stroke="none" stroke-width="1" fill="none" fill-rule="evenodd">
        <g id="Index-1400" transform="translate(-1192.000000, -543.000000)" fill="#9b9b9b">
            <g id="Adjustments" transform="translate(920.000000, 331.000000)">
                <g id="Link-to-video-file" transform="translate(0.000000, 209.000000)">
                    <g id="logos" transform="translate(272.000000, 3.000000)">
                        <path d="M20.4840316,3.34997232 C20.6373566,2.4761343 20.6335708,1.57828974 20.102612,0.898424559 C19.3587018,-0.0560754304 17.7809685,-0.0906448465 16.6972825,0.0783611878 C15.8170834,0.214718329 12.8395496,1.54756137 11.8268474,4.73947079 C13.6213179,4.60119313 14.5620898,4.8691061 14.3898358,6.87605276 C14.3169591,7.7143611 13.8995744,8.63333141 13.4329742,9.51485152 C12.8944438,10.5317685 11.8845809,12.5252715 10.5614429,11.0887202 C9.36796863,9.79236711 9.45788144,7.31873334 9.1843572,5.66996424 C9.03197864,4.74619262 8.87202848,3.59387875 8.57389653,2.64321981 C8.3174084,1.82507696 7.72587673,0.838888342 7.00468133,0.624750014 C6.22859179,0.39428724 5.27173017,0.754385325 4.70859203,1.09047687 C2.91601448,2.15828772 1.55123263,3.67934203 0,4.93344363 L0,5.05059554 C0.307596464,5.34827662 0.390884122,5.83704975 0.843287538,5.9033078 C1.90993743,6.06271122 2.92737189,4.89599343 3.63720989,6.10976404 C4.06784494,6.85396674 4.20224093,7.66730828 4.47860452,8.46720616 C4.84772028,9.53405675 5.13260193,10.6959732 5.43546614,11.921267 C5.94654949,13.999273 6.57499273,17.1028384 8.34390902,17.8633655 C9.24682294,18.2513112 10.6040332,17.7318097 11.2911564,17.3169767 C13.1518784,16.2011528 14.6018408,14.5811915 15.843584,12.9324224 C18.6810431,9.03183996 20.247419,4.61271627 20.4840316,3.34997232" id="Vimeo"></path>
                    </g>
                </g>
            </g>
        </g>
    </g>
</svg>